<?xml version="1.0" encoding="utf-8"?>
<!-- Generator: Adobe Illustrator 27.8.1, SVG Export Plug-In . SVG Version: 6.00 Build 0)  -->
<svg version="1.1" id="Layer_1" xmlns="http://www.w3.org/2000/svg" xmlns:xlink="http://www.w3.org/1999/xlink" x="0px" y="0px"
	 viewBox="0 0 4255 2441.9" style="enable-background:new 0 0 4255 2441.9;" xml:space="preserve">
<style type="text/css">
	.st0{opacity:0.52;fill:url(#SVGID_1_);enable-background:new    ;}
	.st1{fill:url(#SVGID_00000150791657233876465390000001538226630031834007_);}
	.st2{fill:none;}
	.st3{clip-path:url(#SVGID_00000135668211460126635620000007688160445734827663_);}
	.st4{fill:#121316;}
	.st5{fill:#202125;}
	.st6{fill:#1D1D1D;}
	.st7{fill:url(#SVGID_00000122689157203571782850000015304383006933696416_);}
	.st8{fill:url(#SVGID_00000103262832791660435000000007605197119795453092_);}
	.st9{fill:url(#SVGID_00000054257399609021333700000001173554555033862834_);}
</style>
<g>
	<g id="Capa_1">
		<g>
			
				<linearGradient id="SVGID_1_" gradientUnits="userSpaceOnUse" x1="2125.6248" y1="0.8799" x2="2125.6248" y2="22.6299" gradientTransform="matrix(1 0 0 -1 0 2442)">
				<stop  offset="0" style="stop-color:#FFFFFF"/>
				<stop  offset="1" style="stop-color:#000000"/>
			</linearGradient>
			<path class="st0" d="M4190.5,2441.9l-157.3-20.3c-17.7-2.3-36.3-3.4-55.1-3.4l-3685.2,1.1c-15.9,0-31.8,0.9-47.1,2.5l-185.1,20.1
				L4190.5,2441.9L4190.5,2441.9z"/>
			
				<linearGradient id="SVGID_00000176759031624428127780000001317650351306906541_" gradientUnits="userSpaceOnUse" x1="399.36" y1="1269.73" x2="3854.3999" y2="1269.73" gradientTransform="matrix(1 0 0 -1 0 2442)">
				<stop  offset="0" style="stop-color:#7B7E81"/>
				<stop  offset="1" style="stop-color:#808080"/>
			</linearGradient>
			<path style="fill:url(#SVGID_00000176759031624428127780000001317650351306906541_);" d="M3821.1,2344.5H431.8
				c-17.9,0-32.4-14.5-32.4-32.4V86.5c0-47.8,38.7-86.5,86.5-86.5h3282c47.8,0,86.5,38.7,86.5,86.5v2224.7
				C3854.4,2329.6,3839.5,2344.5,3821.1,2344.5L3821.1,2344.5z"/>
			<path class="st2" d="M3810.3,2344.5H441.2c-16.8,0-30.4-13.6-30.4-30.4V86.2c0-40.8,33.1-73.9,73.9-73.9h3281.8
				c40.8,0,73.9,33.1,73.9,73.9v2228.3C3840.4,2331.1,3826.9,2344.5,3810.3,2344.5L3810.3,2344.5z"/>
			<g>
				<g>
					<defs>
						<rect id="SVGID_00000121253530471261837640000007558705481984594859_" x="454.5" y="97.5" width="3342.3" height="2102.1"/>
					</defs>
					<clipPath id="SVGID_00000174574147739680443580000017605903673399527861_">
						<use xlink:href="#SVGID_00000121253530471261837640000007558705481984594859_"  style="overflow:visible;"/>
					</clipPath>
					<g style="clip-path:url(#SVGID_00000174574147739680443580000017605903673399527861_);">
						<g id="yoCcXg.tif">
							
								<image style="overflow:visible;enable-background:new    ;" width="3005" height="1721" id="Layer_0" xlink:href="DB0B1FE1A9DFE430.png"  transform="matrix(1.2235 0 0 1.2235 492.4745 95.8201)">
							</image>
						</g>
					</g>
					<g transform="matrix(1 0 0 1 0 0)" style="clip-path:url(#SVGID_00000174574147739680443580000017605903673399527861_);">
						
							<image style="overflow:visible;" width="2474" height="1522" xlink:href="../../../../../Desktop/Screenshot 2023-08-16 at 6.11.04 PM.png"  transform="matrix(1.389 0 0 1.389 402.3265 85.1338)">
						</image>
					</g>
				</g>
				<path class="st2" d="M3797.2,2200H454V97.1h3343.2V2200z M454.9,2199.1h3341.5V97.9H454.9L454.9,2199.1L454.9,2199.1z"/>
			</g>
			<g>
				<path class="st4" d="M2139,59.5c0,5.8-4.7,10.6-10.6,10.6s-10.6-4.7-10.6-10.6s4.7-10.6,10.6-10.6S2139,53.7,2139,59.5z"/>
				<path class="st5" d="M2133.2,59.5c0,2.6-2.1,4.8-4.8,4.8s-4.8-2.1-4.8-4.8s2.1-4.8,4.8-4.8S2133.2,56.9,2133.2,59.5z"/>
			</g>
			<path class="st6" d="M3810.9,2344.5H440.3c-16.3,0-29.5-13.2-29.5-29.5v-70.2h3429.6v70.2
				C3840.4,2331.3,3827.2,2344.5,3810.9,2344.5L3810.9,2344.5z"/>
			
				<linearGradient id="SVGID_00000008123375510483852300000015907705673978361742_" gradientUnits="userSpaceOnUse" x1="2127.5049" y1="19.9482" x2="2127.5049" y2="78.76" gradientTransform="matrix(1 0 0 -1 0 2442)">
				<stop  offset="0" style="stop-color:#39393B"/>
				<stop  offset="0.54" style="stop-color:#7B7B7D"/>
				<stop  offset="0.99" style="stop-color:#C4C6C8"/>
			</linearGradient>
			<path style="fill:url(#SVGID_00000008123375510483852300000015907705673978361742_);" d="M0,2363.2c0,0,133.1,65.4,433,58.3
				l3537.9-3.6c0,0,219.4-16.5,284.1-54.7H0z"/>
			
				<linearGradient id="SVGID_00000072240420400379074420000004405446053772562079_" gradientUnits="userSpaceOnUse" x1="0" y1="116.16" x2="4255.0098" y2="116.16" gradientTransform="matrix(1 0 0 -1 0 2442)">
				<stop  offset="0" style="stop-color:#737373"/>
				<stop  offset="0" style="stop-color:#7F7F7F"/>
				<stop  offset="0" style="stop-color:#9F9FA1"/>
				<stop  offset="0" style="stop-color:#B9B9BC"/>
				<stop  offset="0" style="stop-color:#CECDD1"/>
				<stop  offset="1.000000e-02" style="stop-color:#DCDBE0"/>
				<stop  offset="1.000000e-02" style="stop-color:#E5E4E9"/>
				<stop  offset="2.000000e-02" style="stop-color:#E8E7EC"/>
				<stop  offset="2.000000e-02" style="stop-color:#D2D2D6"/>
				<stop  offset="2.000000e-02" style="stop-color:#BCBDC0"/>
				<stop  offset="3.000000e-02" style="stop-color:#ACADB0"/>
				<stop  offset="3.000000e-02" style="stop-color:#A2A4A6"/>
				<stop  offset="4.000000e-02" style="stop-color:#A0A2A4"/>
				<stop  offset="4.000000e-02" style="stop-color:#AEB0B2"/>
				<stop  offset="6.000000e-02" style="stop-color:#C4C5C7"/>
				<stop  offset="7.000000e-02" style="stop-color:#D5D6D8"/>
				<stop  offset="9.000000e-02" style="stop-color:#E1E1E3"/>
				<stop  offset="0.12" style="stop-color:#E8E8EA"/>
				<stop  offset="0.2" style="stop-color:#EAEAEC"/>
				<stop  offset="0.87" style="stop-color:#EAEAEC"/>
				<stop  offset="0.89" style="stop-color:#E4E4E6"/>
				<stop  offset="0.91" style="stop-color:#D3D3D5"/>
				<stop  offset="0.94" style="stop-color:#B7B8BA"/>
				<stop  offset="0.97" style="stop-color:#A0A2A4"/>
				<stop  offset="0.97" style="stop-color:#B0B1B4"/>
				<stop  offset="0.98" style="stop-color:#DBDBDF"/>
				<stop  offset="0.98" style="stop-color:#E8E7EC"/>
				<stop  offset="0.98" style="stop-color:#E4E3E8"/>
				<stop  offset="0.99" style="stop-color:#DAD9DD"/>
				<stop  offset="0.99" style="stop-color:#C8C7CB"/>
				<stop  offset="0.99" style="stop-color:#AFAFB1"/>
				<stop  offset="1" style="stop-color:#909091"/>
				<stop  offset="1" style="stop-color:#737373"/>
			</linearGradient>
			<rect y="2288.4" style="fill:url(#SVGID_00000072240420400379074420000004405446053772562079_);" width="4255" height="74.8"/>
			
				<linearGradient id="SVGID_00000009572164360046655460000000428927669255564968_" gradientUnits="userSpaceOnUse" x1="1804.9702" y1="125.51" x2="2448.7803" y2="125.51" gradientTransform="matrix(1 0 0 -1 0 2442)">
				<stop  offset="0" style="stop-color:#737373"/>
				<stop  offset="1.000000e-02" style="stop-color:#868787"/>
				<stop  offset="4.000000e-02" style="stop-color:#ADAEAF"/>
				<stop  offset="7.000000e-02" style="stop-color:#C9CACC"/>
				<stop  offset="9.000000e-02" style="stop-color:#D9DBDD"/>
				<stop  offset="0.11" style="stop-color:#E0E2E4"/>
				<stop  offset="0.11" style="stop-color:#E0E2E4"/>
				<stop  offset="0.5" style="stop-color:#E0E2E4"/>
				<stop  offset="0.89" style="stop-color:#E0E2E4"/>
				<stop  offset="0.9" style="stop-color:#E0E2E4"/>
				<stop  offset="0.92" style="stop-color:#DBDDDF"/>
				<stop  offset="0.94" style="stop-color:#CFD0D2"/>
				<stop  offset="0.96" style="stop-color:#BABBBC"/>
				<stop  offset="0.98" style="stop-color:#9D9D9E"/>
				<stop  offset="1" style="stop-color:#777777"/>
				<stop  offset="1" style="stop-color:#737373"/>
			</linearGradient>
			<path style="fill:url(#SVGID_00000009572164360046655460000000428927669255564968_);" d="M2396.6,2344.5h-539.4
				c-28.8,0-52.2-25.1-52.2-56.1h643.8C2448.8,2319.4,2425.4,2344.5,2396.6,2344.5L2396.6,2344.5z"/>
		</g>
	</g>
</g>
</svg>
