<?xml version="1.0" encoding="utf-8"?>
<!-- Generator: Adobe Illustrator 28.2.0, SVG Export Plug-In . SVG Version: 6.00 Build 0)  -->
<svg version="1.1" id="katman_1" xmlns="http://www.w3.org/2000/svg" xmlns:xlink="http://www.w3.org/1999/xlink" x="0px" y="0px"
	 viewBox="0 0 2600 1700" style="enable-background:new 0 0 2600 1700;" xml:space="preserve">
<style type="text/css">
	.st0{fill:url(#SVGID_1_);}
	.st1{fill:url(#SVGID_00000163055321235332019840000016432984694149542043_);}
	.st2{fill:url(#SVGID_00000109749544424620352080000014845937195905347484_);}
	.st3{fill:url(#SVGID_00000038388819917498531920000007937912767879790262_);}
	.st4{opacity:0.15;clip-path:url(#SVGID_00000092425249120830354370000013662096496716509374_);fill:#FFFFFF;}
	
		.st5{opacity:0.35;clip-path:url(#SVGID_00000092425249120830354370000013662096496716509374_);fill:url(#SVGID_00000152957505095400445400000006202319873152817341_);}
	.st6{clip-path:url(#SVGID_00000030486337964583715570000014081798037692364441_);}
	.st7{fill:#D1D1D1;}
	.st8{fill:#404041;}
	.st9{fill:#58595B;}
	.st10{fill:#8F8F8F;}
	.st11{fill:#231F20;}
	.st12{fill:#454545;}
	.st13{fill:url(#SVGID_00000017512739473584706780000007922616781872913812_);}
	.st14{fill:url(#SVGID_00000168817430941723218430000006826417210442552228_);}
	.st15{fill:#E5E6E7;}
	.st16{fill:#BBBDBF;}
	.st17{fill:#333333;}
	.st18{fill:#4D4D4D;}
	.st19{fill:url(#SVGID_00000047051323157133322960000000954678876032453527_);}
	.st20{fill:#D0D2D3;}
	.st21{display:none;}
	.st22{display:inline;}
	.st23{fill:url(#SVGID_00000137851925327526399610000007517771408667667349_);}
	.st24{fill:url(#SVGID_00000005224519587406450650000003128420902335664820_);}
	.st25{fill:url(#SVGID_00000119106532819133797440000000285301745394735507_);}
	.st26{opacity:0.3;fill:#4D4D4D;}
	.st27{fill:#6D6E71;}
	.st28{fill:#808184;}
	.st29{fill:url(#SVGID_00000087382842068828533330000007813908647975319465_);}
</style>
<g>
	<g>
		<linearGradient id="SVGID_1_" gradientUnits="userSpaceOnUse" x1="400.4175" y1="861.8007" x2="2375.0708" y2="861.8007">
			<stop  offset="0" style="stop-color:#E6E6E6"/>
			<stop  offset="0.3636" style="stop-color:#4D4D4D"/>
			<stop  offset="0.5636" style="stop-color:#CCCCCC"/>
			<stop  offset="0.7636" style="stop-color:#575757"/>
			<stop  offset="1" style="stop-color:#919191"/>
		</linearGradient>
		<path class="st0" d="M471.6,1510.7c-39.2,0-71.2,2.6-71.2-36.6v-1190c0-39.2,31.9-71.2,71.2-71.2h1832.3
			c39.2,0,71.2,31.9,71.2,71.2v1190c0,39.2-31.9,36.6-71.2,36.6H471.6z"/>
		
			<linearGradient id="SVGID_00000140724908652675085360000005131793813846058403_" gradientUnits="userSpaceOnUse" x1="1387.7441" y1="212.8889" x2="1387.7441" y2="1510.7124">
			<stop  offset="0" style="stop-color:#E6E6E6"/>
			<stop  offset="1" style="stop-color:#919191"/>
		</linearGradient>
		<path style="fill:url(#SVGID_00000140724908652675085360000005131793813846058403_);" d="M471.6,1510.7
			c-39.2,0-71.2,2.6-71.2-36.6v-1190c0-39.2,31.9-71.2,71.2-71.2h1832.3c39.2,0,71.2,31.9,71.2,71.2v1190
			c0,39.2-31.9,36.6-71.2,36.6H471.6z"/>
		<g>
			
				<linearGradient id="SVGID_00000176748485914934633840000010702072967401441177_" gradientUnits="userSpaceOnUse" x1="2297.1592" y1="1543.5206" x2="1066.1993" y2="-214.4722">
				<stop  offset="0" style="stop-color:#919191"/>
				<stop  offset="0.1674" style="stop-color:#989898"/>
				<stop  offset="0.4003" style="stop-color:#AAAAAA"/>
				<stop  offset="0.6715" style="stop-color:#C7C7C7"/>
				<stop  offset="0.9696" style="stop-color:#F0F0F0"/>
				<stop  offset="1" style="stop-color:#F5F5F5"/>
			</linearGradient>
			<path style="fill:url(#SVGID_00000176748485914934633840000010702072967401441177_);" d="M2371.5,280.1c0-35.8-29-64.8-64.8-64.8
				h-1834c-24,0-45,13.1-56.1,32.5c11.8-15.4,30.5-25.4,51.4-25.4h1834c35.8,0,64.8,29,64.8,64.8v1191.1c0,11.8-0.7,7.5-6.2,17
				c8.4-10.9,10.9-9.3,10.9-24.1V280.1z"/>
			
				<linearGradient id="SVGID_00000168105908038502022370000016939267256249292188_" gradientUnits="userSpaceOnUse" x1="1707.2316" y1="1948.5883" x2="481.7906" y2="198.4772">
				<stop  offset="0" style="stop-color:#E6E6E6"/>
				<stop  offset="0.3636" style="stop-color:#4D4D4D"/>
				<stop  offset="0.5636" style="stop-color:#CCCCCC"/>
				<stop  offset="1" style="stop-color:#919191"/>
			</linearGradient>
			<path style="fill:url(#SVGID_00000168105908038502022370000016939267256249292188_);" d="M2306.7,1501.4h-1834
				c-35.8,0-64.8,5.6-64.8-30.2V280.1c0-11.8,3.1-22.8,8.6-32.3c-8.4,10.9-13.4,24.6-13.4,39.4v1191.1c0,35.8,29,30.2,64.8,30.2
				h1834c24,0,52-5.5,63.2-24.9C2353.3,1499.1,2327.7,1501.4,2306.7,1501.4z"/>
		</g>
		<g>
			<defs>
				<path id="SVGID_00000087390202055949548300000014221467109679285377_" d="M465.3,1495.9c-28.7,0-52.1,11.2-52.1-17.6V279.8
					c0-28.7,23.4-52.1,52.1-52.1h1844.9c28.7,0,52.1,23.4,52.1,52.1v1198.5c0,28.7-23.2,22.2-51.9,22.2L465.3,1495.9z"/>
			</defs>
			<use xlink:href="#SVGID_00000087390202055949548300000014221467109679285377_"  style="overflow:visible;"/>
			<clipPath id="SVGID_00000160881663079926607900000005438975726517694336_">
				<use xlink:href="#SVGID_00000087390202055949548300000014221467109679285377_"  style="overflow:visible;"/>
			</clipPath>
			<path style="opacity:0.15;clip-path:url(#SVGID_00000160881663079926607900000005438975726517694336_);fill:#FFFFFF;" d="
				M2410.1,171.6l-1270.8,0.2L1542.1,1585l867.9-0.2c58.6,0,106.1-40.4,106.1-90.3V261.9C2516.1,212,2468.6,171.6,2410.1,171.6z"/>
			
				<radialGradient id="SVGID_00000109751154092455920790000007331677119855418764_" cx="1772.978" cy="3797.5063" r="415.4444" gradientTransform="matrix(-1.7219 9.200000e-03 -3.100000e-03 -0.5897 4452.4072 2450.7708)" gradientUnits="userSpaceOnUse">
				<stop  offset="0" style="stop-color:#FFFFFF"/>
				<stop  offset="0.1433" style="stop-color:#FCFDFD"/>
				<stop  offset="0.2342" style="stop-color:#F4F6F5"/>
				<stop  offset="0.3107" style="stop-color:#E5E9E8"/>
				<stop  offset="0.379" style="stop-color:#D0D8D6"/>
				<stop  offset="0.442" style="stop-color:#B5C2BF"/>
				<stop  offset="0.5002" style="stop-color:#95A7A2"/>
				<stop  offset="0.5515" style="stop-color:#718983"/>
				<stop  offset="0.5907" style="stop-color:#60756F"/>
				<stop  offset="0.6811" style="stop-color:#3E4B48"/>
				<stop  offset="0.7692" style="stop-color:#232A28"/>
				<stop  offset="0.8535" style="stop-color:#101312"/>
				<stop  offset="0.9323" style="stop-color:#040505"/>
				<stop  offset="1" style="stop-color:#000000"/>
			</radialGradient>
			
				<path style="opacity:0.35;clip-path:url(#SVGID_00000160881663079926607900000005438975726517694336_);fill:url(#SVGID_00000109751154092455920790000007331677119855418764_);" d="
				M672.4,231.5c-0.7-135.3,319-246.7,714-248.8c395.1-2.1,715.9,105.9,716.7,241.2c0.7,135.3-319,246.7-714,248.8
				C994,474.8,673.1,366.8,672.4,231.5z"/>
		</g>
		<g>
			<defs>
				<rect id="SVGID_00000180352911752061665770000006796603855248766627_" x="448.6" y="268.7" width="1876.7" height="1168.8"/>
			</defs>
			<clipPath id="SVGID_00000000200274821115812890000007364139270827747261_">
				<use xlink:href="#SVGID_00000180352911752061665770000006796603855248766627_"  style="overflow:visible;"/>
			</clipPath>
			<g id="HW7pNM.tif" style="clip-path:url(#SVGID_00000000200274821115812890000007364139270827747261_);">
				
					<image style="overflow:visible;" width="2108" height="1204" id="Layer_0_00000168085989431721324480000016359284012099655324_" xlink:href="../../carpetnearme-desktop.png"  transform="matrix(0.9038 0 0 0.9879 433.2245 255.717)">
				</image>
			</g>
		</g>
		<polygon class="st7" points="452.5,273.7 2324.7,273.7 2324.7,269.4 448.6,269.4 448.6,1408.3 452.5,1408.3 		"/>
		<g>
			<rect x="413.2" y="1437.4" class="st8" width="1949.1" height="4.4"/>
		</g>
		<g>
			<circle class="st9" cx="1387.9" cy="248.1" r="8"/>
			
				<ellipse transform="matrix(0.9732 -0.2298 0.2298 0.9732 -19.7665 325.4128)" class="st10" cx="1387.5" cy="247.6" rx="8" ry="8"/>
			<circle class="st11" cx="1387.5" cy="247.6" r="6.9"/>
			<path class="st12" d="M1392.2,247.6c0-2.6-2.1-4.7-4.7-4.7s-4.7,2.1-4.7,4.7c0,2.6,2.1,4.7,4.7,4.7S1392.2,250.2,1392.2,247.6z"
				/>
			<path d="M1388.8,247.6c0-0.7-0.6-1.3-1.3-1.3s-1.3,0.6-1.3,1.3s0.6,1.3,1.3,1.3S1388.8,248.3,1388.8,247.6z"/>
		</g>
	</g>
	<g>
		
			<image style="display:none;overflow:visible;opacity:0.4;" width="10099" height="416" xlink:href="F690585B3D534BFA.png"  transform="matrix(0.24 0 0 0.24 175.92 1486.6366)">
		</image>
		
			<linearGradient id="SVGID_00000147933837805645928560000006424900701656939956_" gradientUnits="userSpaceOnUse" x1="215.7332" y1="1493.3531" x2="2559.7549" y2="1493.3531">
			<stop  offset="6.060610e-03" style="stop-color:#FFFFFF"/>
			<stop  offset="3.030300e-02" style="stop-color:#737373"/>
			<stop  offset="3.411524e-02" style="stop-color:#7E7F7F"/>
			<stop  offset="4.579394e-02" style="stop-color:#9C9D9D"/>
			<stop  offset="5.808479e-02" style="stop-color:#B3B4B5"/>
			<stop  offset="7.109999e-02" style="stop-color:#C3C5C6"/>
			<stop  offset="8.532117e-02" style="stop-color:#CDCFD0"/>
			<stop  offset="0.103" style="stop-color:#D0D2D3"/>
			<stop  offset="0.3515" style="stop-color:#D5D7D8"/>
			<stop  offset="0.503" style="stop-color:#F2F3F3"/>
			<stop  offset="0.6545" style="stop-color:#E5E6E7"/>
			<stop  offset="0.8998" style="stop-color:#D0D2D3"/>
			<stop  offset="0.9636" style="stop-color:#737373"/>
			<stop  offset="1" style="stop-color:#FFFFFF"/>
		</linearGradient>
		<polygon style="fill:url(#SVGID_00000147933837805645928560000006424900701656939956_);" points="2559.8,1479.4 1387.7,1479.4 
			215.7,1479.4 215.7,1507.3 2559.8,1507.3 		"/>
		
			<linearGradient id="SVGID_00000054971135713489316750000007598114280467568021_" gradientUnits="userSpaceOnUse" x1="1387.7441" y1="1536.6215" x2="1387.7441" y2="1507.3033">
			<stop  offset="0.2485" style="stop-color:#616161"/>
			<stop  offset="0.4047" style="stop-color:#686868"/>
			<stop  offset="0.6382" style="stop-color:#7D7D7D"/>
			<stop  offset="0.8" style="stop-color:#8F8F8F"/>
			<stop  offset="1" style="stop-color:#949494"/>
		</linearGradient>
		<path style="fill:url(#SVGID_00000054971135713489316750000007598114280467568021_);" d="M215.7,1507.3L215.7,1507.3
			c0,0,73.7,30.3,127.2,29.3l1044.8,0l1044.8,0c53.5,1,127.2-29.3,127.2-29.3v0H215.7z"/>
		<rect x="2553.5" y="1479.4" class="st15" width="6.2" height="27.9"/>
		<rect x="215.9" y="1479.4" class="st15" width="6.2" height="27.9"/>
		<g>
			<g>
				<path class="st9" d="M2372.9,1494c0-2.3-1.8-4.1-4.1-4.1c-2.3,0-4.1,1.8-4.1,4.1s1.8,4.1,4.1,4.1
					C2371.1,1498.1,2372.9,1496.3,2372.9,1494z"/>
				<circle class="st16" cx="2368.7" cy="1493.7" r="4.1"/>
				<circle class="st17" cx="2368.7" cy="1493.7" r="3.5"/>
			</g>
			<g>
				
					<ellipse transform="matrix(0.9732 -0.2298 0.2298 0.9732 -279.2615 589.8316)" class="st9" cx="2393.3" cy="1494.1" rx="8" ry="8"/>
				<circle class="st16" cx="2392.9" cy="1493.6" r="8"/>
				<path class="st18" d="M2399.7,1493.6c0-3.8-3.1-6.9-6.9-6.9c-3.8,0-6.9,3.1-6.9,6.9c0,3.8,3.1,6.9,6.9,6.9
					C2396.7,1500.5,2399.7,1497.4,2399.7,1493.6z"/>
			</g>
			<g>
				
					<ellipse transform="matrix(0.9732 -0.2298 0.2298 0.9732 -278.6115 595.414)" class="st9" cx="2417.6" cy="1494.1" rx="8" ry="8"/>
				<circle class="st16" cx="2417.1" cy="1493.6" r="8"/>
				<path class="st18" d="M2424,1493.6c0-3.8-3.1-6.9-6.9-6.9s-6.9,3.1-6.9,6.9c0,3.8,3.1,6.9,6.9,6.9S2424,1497.4,2424,1493.6z"/>
			</g>
		</g>
		<g>
			
				<linearGradient id="SVGID_00000176024508778330374150000006736084784091629747_" gradientUnits="userSpaceOnUse" x1="1387.7441" y1="1479.403" x2="1387.7441" y2="1495.3419">
				<stop  offset="0" style="stop-color:#999999"/>
				<stop  offset="1" style="stop-color:#4D4D4D"/>
			</linearGradient>
			<path style="fill:url(#SVGID_00000176024508778330374150000006736084784091629747_);" d="M1387.9,1479.4h-0.3h-152.7
				c0,0,3.4,15.9,36.2,15.9c31.7,0,111.4,0,116.5,0c0.2,0,0.3,0,0.3,0c5.2,0,84.8,0,116.5,0c32.8,0,36.2-15.9,36.2-15.9H1387.9z"/>
			<path class="st20" d="M1534.9,1479.4c-1.7,5.3-10.8,14-35.8,14c-31.6,0-110.7,0-115.9,0c0,0-0.1,0-0.3,0c-5.1,0-84.3,0-115.9,0
				c-9,0-15.7-1-20.8-2.5c5.4,2.5,13.5,4.5,26,4.5c31.6,0,110.7,0,115.9,0c0.2,0,0.3,0,0.3,0c5.1,0,84.3,0,115.9,0
				c32.6,0,36.2-15.9,36.2-15.9H1534.9z"/>
		</g>
	</g>
</g>
<g>
	<g class="st21">
		<defs>
			<rect id="SVGID_00000098182536173431676590000005210968887294439048_" y="1520.1" width="747.5" height="68.8"/>
		</defs>
		<clipPath id="SVGID_00000147216807527639833310000006408155762557442208_" class="st22">
			<use xlink:href="#SVGID_00000098182536173431676590000005210968887294439048_"  style="overflow:visible;"/>
		</clipPath>
		<g style="display:inline;opacity:0.68;clip-path:url(#SVGID_00000147216807527639833310000006408155762557442208_);">
			
				<image style="overflow:visible;" width="3204" height="224" xlink:href="F690585B3D534BFE.png"  transform="matrix(0.24 0 0 0.24 -10.56 1533.1967)">
			</image>
		</g>
	</g>
	<g>
		
			<linearGradient id="SVGID_00000096767074123577110270000016320708869453316738_" gradientUnits="userSpaceOnUse" x1="742.6977" y1="1397.7311" x2="7.4725" y2="662.5059">
			<stop  offset="5.000000e-08" style="stop-color:#1C1C1C"/>
			<stop  offset="1" style="stop-color:#4D4D4D"/>
		</linearGradient>
		<path style="fill:url(#SVGID_00000096767074123577110270000016320708869453316738_);" d="M206.2,1559.3
			c-49.5,0-89.8-40.3-89.8-89.8V590.7c0-49.5,40.3-89.8,89.8-89.8H544c49.5,0,89.8,40.3,89.8,89.8v878.8c0,49.5-40.3,89.8-89.8,89.8
			H206.2z"/>
		
			<linearGradient id="SVGID_00000088812954384061941140000001728260988623635892_" gradientUnits="userSpaceOnUse" x1="118.1861" y1="1027.3727" x2="580.8751" y2="1027.3727">
			<stop  offset="0" style="stop-color:#C7C7C7"/>
			<stop  offset="0.1091" style="stop-color:#FFFFFF"/>
			<stop  offset="0.3333" style="stop-color:#BDBDBD"/>
			<stop  offset="1" style="stop-color:#919191"/>
		</linearGradient>
		<path style="fill:url(#SVGID_00000088812954384061941140000001728260988623635892_);" d="M124.1,1472.3V593.5
			c0-48.1,39.1-87.3,87.3-87.3h337.8c11.2,0,21.9,2.1,31.7,6c-11.4-5.5-24.2-8.6-37.7-8.6H205.5c-48.1,0-87.3,39.2-87.3,87.3v878.8
			c0,36.9,23.1,68.6,55.6,81.3C144.4,1537,124.1,1507,124.1,1472.3z"/>
		
			<image style="overflow:visible;" width="2136" height="4390" xlink:href="F690585B3D534BFD.png"  transform="matrix(0.24 0 0 0.24 118.08 503.5966)">
		</image>
		
			<linearGradient id="SVGID_00000172424774132468823210000006148785701133929375_" gradientUnits="userSpaceOnUse" x1="136.5072" y1="700.8247" x2="94.1054" y2="658.4229">
			<stop  offset="0" style="stop-color:#636363"/>
			<stop  offset="0.2353" style="stop-color:#6C6C6C"/>
			<stop  offset="0.6178" style="stop-color:#858585"/>
			<stop  offset="1" style="stop-color:#A3A3A3"/>
		</linearGradient>
		<path style="fill:url(#SVGID_00000172424774132468823210000006148785701133929375_);" d="M116.4,638.3c-2.9,0-5.3,2.4-5.3,5.3
			v72.1c0,2.9,2.4,5.3,5.3,5.3V638.3z"/>
		<g>
			<defs>
				<path id="SVGID_00000161611618640337257170000002492007034940786613_" d="M206.2,1537c-37.2,0-67.5-30.3-67.5-67.5V590.7
					c0-37.2,30.3-67.5,67.5-67.5H544c37.2,0,67.5,30.3,67.5,67.5v878.8c0,37.2-30.3,67.5-67.5,67.5H206.2z"/>
			</defs>
			<use xlink:href="#SVGID_00000161611618640337257170000002492007034940786613_"  style="overflow:visible;fill:#FFFFFF;"/>
			<clipPath id="SVGID_00000147939312292527623840000017399259685742756280_">
				<use xlink:href="#SVGID_00000161611618640337257170000002492007034940786613_"  style="overflow:visible;"/>
			</clipPath>
			<g style="clip-path:url(#SVGID_00000147939312292527623840000017399259685742756280_);">
				
					<image style="overflow:visible;" width="596" height="1208" xlink:href="../../carpetnearme-mobile.png"  transform="matrix(0.8155 0 0 0.8155 132.0718 556.1556)">
				</image>
			</g>
		</g>
		<g>
			<path class="st11" d="M544,1538.5H206.2c-38,0-69-30.9-69-69V590.7c0-38,30.9-69,69-69H544c38,0,69,30.9,69,69v878.8
				C612.9,1507.6,582,1538.5,544,1538.5z M206.2,524.7c-36.4,0-66,29.6-66,66v878.8c0,36.4,29.6,66,66,66H544c36.4,0,66-29.6,66-66
				V590.7c0-36.4-29.6-66-66-66H206.2z"/>
		</g>
		<rect x="613" y="1413.4" class="st26" width="20.8" height="7.4"/>
		<rect x="116.4" y="1413.4" class="st26" width="20.8" height="7.4"/>
		<rect x="613" y="1397.7" class="st26" width="20.8" height="7.4"/>
		<rect x="116.4" y="1397.7" class="st26" width="20.8" height="7.4"/>
	</g>
	<g>
		<g>
			<path class="st27" d="M562.8,543.1v7.7c0,1.5-1.4,2.7-3.2,2.7h-23.2c-1.7,0-3.2-1.2-3.2-2.7v-0.8c-0.6-0.1-1.4-0.5-1.4-1.1v-4
				c0-0.6,0.8-1,1.4-1.1v-0.8c0-1.5,1.4-2.7,3.2-2.7h23.2C561.4,540.4,562.8,541.6,562.8,543.1z M534.4,550.9c0,0.9,0.9,1.7,2,1.7
				h23.2c1.1,0,2-0.8,2-1.7v-7.7c0-0.9-0.9-1.7-2-1.7h-23.2c-1.1,0-2,0.8-2,1.7v1.7h-0.6c-0.2,0-0.7,0.2-0.9,0.3v3.8
				c0.2,0.1,0.6,0.3,0.9,0.3h0.6V550.9z"/>
		</g>
		<rect x="536.2" y="542.5" class="st27" width="3.4" height="8.8"/>
		<rect x="541.3" y="542.5" class="st27" width="3.4" height="8.8"/>
		<rect x="546.3" y="542.5" class="st27" width="3.4" height="8.8"/>
		<rect x="551.4" y="542.5" class="st27" width="3.4" height="8.8"/>
		<rect x="556.4" y="542.5" class="st27" width="3.4" height="8.8"/>
	</g>
	<g>
		<rect x="194.2" y="543.5" class="st28" width="5.6" height="7.1"/>
		<rect x="202.4" y="543.5" class="st28" width="5.6" height="7.1"/>
		<rect x="210.6" y="543.5" class="st28" width="5.6" height="7.1"/>
		<rect x="218.8" y="543.5" class="st28" width="5.6" height="7.1"/>
		<rect x="227" y="543.5" class="st28" width="5.6" height="7.1"/>
		<rect x="235.4" y="543.5" class="st28" width="5.6" height="7.1"/>
	</g>
	<g>
		<path class="st27" d="M482.6,545L482.6,545l-1.5,0.7l-0.3-1.3l2-0.9h1.5v7.6h-1.7V545z"/>
		<path class="st27" d="M486.4,546.4c0-0.6,0.4-1.1,1.1-1.1c0.6,0,1,0.4,1,1.1c0,0.6-0.4,1.1-1.1,1.1
			C486.8,547.4,486.4,547,486.4,546.4z M486.4,550.1c0-0.6,0.4-1.1,1.1-1.1c0.6,0,1,0.4,1,1.1c0,0.6-0.4,1.1-1.1,1.1
			C486.8,551.2,486.4,550.8,486.4,550.1z"/>
		<path class="st27" d="M490.3,549.3c0.3,0.2,1,0.5,1.8,0.5c0.9,0,1.4-0.4,1.4-1c0-0.8-0.7-1.1-1.5-1.1h-0.7v-1.3h0.7
			c0.6,0,1.4-0.2,1.4-0.9c0-0.5-0.4-0.8-1.1-0.8c-0.6,0-1.3,0.3-1.6,0.5l-0.4-1.3c0.5-0.3,1.4-0.6,2.4-0.6c1.6,0,2.5,0.9,2.5,1.9
			c0,0.8-0.5,1.4-1.4,1.8v0c0.9,0.2,1.7,0.9,1.7,1.9c0,1.3-1.2,2.3-3.1,2.3c-1,0-1.8-0.3-2.3-0.5L490.3,549.3z"/>
		<path class="st27" d="M502.1,547.2c0,2.4-0.9,4-2.9,4c-2,0-2.8-1.8-2.9-3.9c0-2.2,0.9-4,2.9-4
			C501.3,543.3,502.1,545.1,502.1,547.2z M498.2,547.3c0,1.8,0.4,2.6,1.1,2.6c0.7,0,1.1-0.9,1.1-2.6c0-1.7-0.4-2.6-1.1-2.6
			C498.6,544.7,498.1,545.5,498.2,547.3z"/>
		<path class="st27" d="M505.6,543.3c0.6-0.1,1.3-0.2,2.4-0.2c1.1,0,1.9,0.2,2.4,0.6c0.5,0.4,0.8,1.1,0.8,1.8c0,0.8-0.3,1.4-0.7,1.9
			c-0.6,0.6-1.5,0.8-2.6,0.8c-0.2,0-0.4,0-0.6,0v2.8h-1.8V543.3z M507.4,546.9c0.2,0,0.3,0,0.6,0c1,0,1.5-0.5,1.5-1.3
			c0-0.7-0.5-1.2-1.4-1.2c-0.4,0-0.6,0-0.7,0.1V546.9z"/>
		<path class="st27" d="M519,548.1c0-1-0.1-2.1-0.1-3.3h0c-0.2,1-0.6,2.1-0.9,3.1l-1,3.1h-1.4l-0.8-3.1c-0.3-0.9-0.5-2.1-0.7-3.1h0
			c0,1.1-0.1,2.3-0.1,3.3l-0.1,3h-1.7l0.5-7.9h2.4l0.8,2.6c0.2,0.9,0.5,1.9,0.7,2.8h0c0.2-0.9,0.5-2,0.8-2.8l0.8-2.6h2.3l0.4,7.9
			h-1.7L519,548.1z"/>
	</g>
	<g>
		<g>
			<path class="st11" d="M277.5,524.7v11.8c0,10,6.5,18,14.6,18h160.2c8.1,0,14.6-8.1,14.6-18v-11.8H277.5z"/>
		</g>
		
			<linearGradient id="SVGID_00000098921510316376877780000007039437512659703689_" gradientUnits="userSpaceOnUse" x1="277.5353" y1="539.5983" x2="379.7502" y2="539.5983">
			<stop  offset="0" style="stop-color:#1A1A1A"/>
			<stop  offset="1" style="stop-color:#333333"/>
		</linearGradient>
		<path style="fill:url(#SVGID_00000098921510316376877780000007039437512659703689_);" d="M369.8,524.7h-92.2v11.8
			c0,10,6.5,18,14.6,18h87.6L369.8,524.7z"/>
	</g>
</g>
</svg>
